<svg width="14" height="16" viewBox="0 0 14 16" fill="none" xmlns="http://www.w3.org/2000/svg">
<path d="M13.0002 6.66634H1.00024M9.66691 1.33301V3.99967M4.33358 1.33301V3.99967M4.20024 14.6663H9.80024C10.9203 14.6663 11.4804 14.6663 11.9082 14.4484C12.2845 14.2566 12.5905 13.9506 12.7823 13.5743C13.0002 13.1465 13.0002 12.5864 13.0002 11.4663V5.86634C13.0002 4.74624 13.0002 4.18618 12.7823 3.75836C12.5905 3.38204 12.2845 3.07607 11.9082 2.88433C11.4804 2.66634 10.9203 2.66634 9.80024 2.66634H4.20024C3.08014 2.66634 2.52009 2.66634 2.09226 2.88433C1.71594 3.07607 1.40998 3.38204 1.21823 3.75836C1.00024 4.18618 1.00024 4.74624 1.00024 5.86634V11.4663C1.00024 12.5864 1.00024 13.1465 1.21823 13.5743C1.40998 13.9506 1.71594 14.2566 2.09226 14.4484C2.52009 14.6663 3.08014 14.6663 4.20024 14.6663Z" stroke="#9395B8" stroke-width="1.28" stroke-linecap="round" stroke-linejoin="round"/>
</svg>
