<svg width="20" height="14" viewBox="0 0 20 14" fill="none" xmlns="http://www.w3.org/2000/svg">
<path d="M18.3327 4.44411C18.3327 3.93926 18.3327 3.68684 18.2329 3.56995C18.1462 3.46853 18.0163 3.41471 17.8833 3.42518C17.7301 3.43724 17.5516 3.61573 17.1946 3.97271L14.166 7.0013L17.1946 10.0299C17.5516 10.3869 17.7301 10.5654 17.8833 10.5774C18.0163 10.5879 18.1462 10.5341 18.2329 10.4327C18.3327 10.3158 18.3327 10.0633 18.3327 9.55849V4.44411Z" stroke="#9395B8" stroke-width="1.5" stroke-linecap="round" stroke-linejoin="round"/>
<path d="M1.66602 5.16797C1.66602 3.76784 1.66602 3.06777 1.9385 2.53299C2.17818 2.06259 2.56063 1.68014 3.03104 1.44045C3.56582 1.16797 4.26588 1.16797 5.66602 1.16797H10.166C11.5661 1.16797 12.2662 1.16797 12.801 1.44045C13.2714 1.68014 13.6538 2.06259 13.8935 2.53299C14.166 3.06777 14.166 3.76784 14.166 5.16797V8.83464C14.166 10.2348 14.166 10.9348 13.8935 11.4696C13.6538 11.94 13.2714 12.3225 12.801 12.5622C12.2662 12.8346 11.5661 12.8346 10.166 12.8346H5.66602C4.26588 12.8346 3.56582 12.8346 3.03104 12.5622C2.56063 12.3225 2.17818 11.94 1.9385 11.4696C1.66602 10.9348 1.66602 10.2348 1.66602 8.83464V5.16797Z" stroke="#9395B8" stroke-width="1.5" stroke-linecap="round" stroke-linejoin="round"/>
</svg>
